<svg xmlns="http://www.w3.org/2000/svg" viewBox="0 0 1200 440" width="1200" height="440" font-family="'Segoe UI',Roboto,Helvetica,Arial,sans-serif">
  <defs>
    <linearGradient id="bg" x1="0" y1="0" x2="1" y2="1">
      <stop offset="0" stop-color="#0b1020"/>
      <stop offset="1" stop-color="#211a49"/>
    </linearGradient>
    <marker id="ah" viewBox="0 0 10 10" refX="9" refY="5" markerWidth="7" markerHeight="7" orient="auto-start-reverse">
      <path d="M0 0 L10 5 L0 10 z" fill="#94a3b8"/>
    </marker>
  </defs>

  <rect x="0" y="0" width="1200" height="440" rx="28" fill="url(#bg)"/>

  <!-- header -->
  <text x="64" y="88" font-size="46" font-weight="800" fill="#f8fafc">claude<tspan fill="#818cf8">-</tspan>deepseek<tspan fill="#fb923c">-</tspan>subagents</text>
  <text x="64" y="130" font-size="22" fill="#cbd5e1">Claude orchestrates on your subscription — DeepSeek does the grunt work.</text>

  <!-- left: you + claude code -->
  <g>
    <rect x="64" y="252" width="210" height="96" rx="16" fill="#ffffff" fill-opacity="0.06" stroke="#94a3b8" stroke-width="1.5"/>
    <text x="169" y="294" text-anchor="middle" font-size="19" font-weight="700" fill="#f8fafc">Claude Code</text>
    <text x="169" y="318" text-anchor="middle" font-size="14" fill="#cbd5e1">you + Claude</text>
  </g>

  <!-- router -->
  <g>
    <rect x="330" y="252" width="176" height="96" rx="16" fill="#ffffff" fill-opacity="0.06" stroke="#e2e8f0" stroke-width="1.5"/>
    <text x="418" y="292" text-anchor="middle" font-size="18" font-weight="700" fill="#f8fafc">router</text>
    <text x="418" y="316" text-anchor="middle" font-size="13" fill="#94a3b8">127.0.0.1:8080</text>
  </g>

  <!-- right: anthropic -->
  <g>
    <rect x="566" y="198" width="570" height="88" rx="16" fill="#fb923c" fill-opacity="0.10" stroke="#fb923c" stroke-width="1.5"/>
    <circle cx="600" cy="242" r="7" fill="#fb923c"/>
    <text x="624" y="235" font-size="19" font-weight="700" fill="#f8fafc">Anthropic · your Claude model</text>
    <text x="624" y="259" font-size="14" fill="#fed7aa">your subscription — OAuth passed through untouched</text>
  </g>

  <!-- right: deepseek -->
  <g>
    <rect x="566" y="314" width="570" height="88" rx="16" fill="#6366f1" fill-opacity="0.14" stroke="#818cf8" stroke-width="1.5"/>
    <circle cx="600" cy="358" r="7" fill="#22d3ee"/>
    <text x="624" y="351" font-size="19" font-weight="700" fill="#f8fafc">DeepSeek · ds-flash / ds-pro</text>
    <text x="624" y="375" font-size="14" fill="#c7d2fe">real native subagents — full tool loop, ~15× cheaper</text>
  </g>

  <!-- arrows -->
  <line x1="274" y1="300" x2="326" y2="300" stroke="#94a3b8" stroke-width="2" marker-end="url(#ah)"/>
  <path d="M506 288 C 540 270, 546 250, 562 242" fill="none" stroke="#94a3b8" stroke-width="2" marker-end="url(#ah)"/>
  <path d="M506 312 C 540 330, 546 350, 562 358" fill="none" stroke="#94a3b8" stroke-width="2" marker-end="url(#ah)"/>
  <text x="510" y="246" font-size="12.5" font-weight="600" fill="#fdba74">claude-*</text>
  <text x="510" y="360" font-size="12.5" font-weight="600" fill="#a5b4fc">deepseek-*</text>

  <!-- footer -->
  <text x="64" y="418" font-size="14" fill="#64748b">~90-line proxy · zero dependencies · plain `claude` untouched · your code stays on your machine</text>
</svg>
